Coordinates
version=1
nRows=16
nColumns=42
inDegrees=yes

Units are S.I. units (second, meters, Newtons, ...)
If the header above contains a line with 'inDegrees', this indicates whether rotational values are in degrees (yes) or radians (no).

endheader
time	pelvis_tilt	pelvis_list	pelvis_rotation	pelvis_tx	pelvis_ty	pelvis_tz	hip_flexion_r	hip_adduction_r	hip_rotation_r	knee_angle_r	knee_adduction_r	knee_angle_r_beta	ankle_angle_r	subtalar_angle_r	mtp_angle_r	hip_flexion_l	hip_adduction_l	hip_rotation_l	knee_angle_l	knee_adduction_l	knee_angle_l_beta	ankle_angle_l	subtalar_angle_l	mtp_angle_l	lumbar_extension	lumbar_bending	lumbar_rotation	arm_flex_r	arm_add_r	arm_rot_r	elbow_flex_r	pro_sup_r	wrist_flex_r	wrist_dev_r	arm_flex_l	arm_add_l	arm_rot_l	elbow_flex_l	pro_sup_l	wrist_flex_l	wrist_dev_l
      6.00000000	      6.72313293	     -4.91666179	     -4.80591165	      0.50650599	      0.94581572	     -0.15132894	     10.05972215	     -7.18903072	    -13.96015281	     41.09146925	      2.83475304	      0.71718143	      4.65089064	     -1.76042592	     -7.50300089	      3.18847494	     -4.90727347	    -23.34619474	     28.72053786	     -1.47792868	      0.50126795	     16.46139981	      4.29640322	     -7.50300089	    -18.19934562	      4.21846086	     -2.12749682	      7.91886670	    -10.71665366	      6.76477072	     41.88604810	     90.00000001	      0.00000000	      0.00000000	    -15.18328763	    -10.23897998	     -3.00745024	     52.00637055	     90.00000001	      0.00000000	      0.00000000
      6.01000000	      6.73412949	     -5.12234257	     -4.84146396	      0.50789134	      0.94596186	     -0.15110007	     10.19881431	     -6.81150354	    -14.20767423	     39.68830669	      2.76784149	      0.69269163	      5.12278339	     -0.10522764	     -7.50287121	      3.05882135	     -5.09669634	    -23.14211948	     28.74621708	     -1.46186756	      0.50171614	     16.55697634	      4.00097000	     -7.50287121	    -18.28452804	      4.36774503	     -2.03967713	      7.92717335	    -10.63756414	      6.40048000	     41.53385736	     90.00000001	      0.00000000	      0.00000000	    -15.16657056	    -10.17519188	     -3.01235144	     51.86925967	     90.00000001	      0.00000000	      0.00000000
      6.02000000	      6.60805742	     -5.11023762	     -4.94402276	      0.50897949	      0.94572402	     -0.15086942	     10.68054198	     -6.75930733	    -14.18117093	     38.61221677	      2.99097486	      0.67391031	      5.27354471	      0.53708017	     -7.50283326	      3.12398760	     -5.05844141	    -23.12094045	     28.75527395	     -1.49109660	      0.50187421	     16.65703416	      3.88664561	     -7.50283326	    -18.23400125	      4.28914753	     -1.95151104	      7.90662423	    -10.66606160	      6.35027130	     41.38863125	     90.00000001	      0.00000000	      0.00000000	    -15.12720863	    -10.15694493	     -2.99328349	     51.84300726	     90.00000001	      0.00000000	      0.00000000
      6.03000000	      6.61754292	     -5.17840308	     -4.96284435	      0.51037542	      0.94571267	     -0.15069062	     10.93952852	     -6.62146541	    -14.88150879	     37.44524410	      2.77179008	      0.65354280	      5.74419908	      2.59730177	     -7.50269124	      3.00302150	     -5.13413339	    -22.97182020	     28.78560013	     -1.39719473	      0.50240350	     16.73130680	      3.60776902	     -7.50269124	    -18.30738941	      4.30720840	     -1.90785703	      7.88644063	    -10.62982534	      6.02295555	     41.17985079	     90.00000001	      0.00000000	      0.00000000	    -15.09454377	    -10.10400588	     -3.00579031	     51.74607931	     90.00000001	      0.00000000	      0.00000000
      6.04000000	      6.45922440	     -5.09888702	     -5.08505411	      0.51147921	      0.94533542	     -0.15044441	     11.47986206	     -6.62572855	    -14.84128389	     36.38815880	      2.98214796	      0.63509318	      5.76912216	      3.15592259	     -7.50266436	      3.12345300	     -5.00172137	    -22.94916066	     28.81688184	     -1.47386157	      0.50294947	     16.82393487	      3.53334352	     -7.50266436	    -18.21379353	      4.16092128	     -1.83822378	      7.83801511	    -10.65610200	      6.01474847	     41.10001723	     90.00000001	      0.00000000	      0.00000000	    -15.07484971	    -10.06858570	     -2.98180988	     51.73790321	     90.00000001	      0.00000000	      0.00000000
      6.05000000	      6.33974914	     -5.14686213	     -5.19817069	      0.51266683	      0.94504275	     -0.15007603	     11.92344560	     -6.49577555	    -14.95457686	     35.28955591	      3.19466080	      0.61591894	      5.81670002	      4.18470246	     -7.50263089	      3.17339692	     -5.08168057	    -22.96372003	     28.88810828	     -1.44751675	      0.50419260	     16.93672444	      3.35571639	     -7.50263089	    -18.16912411	      4.15301733	     -1.74268197	      7.85168857	    -10.72546324	      5.92760663	     40.96692419	     90.00000001	      0.00000000	      0.00000000	    -15.04044467	    -10.02925704	     -2.96945347	     51.60051509	     90.00000001	      0.00000000	      0.00000000
      6.06000000	      6.34923562	     -5.20408816	     -5.19824574	      0.51409336	      0.94491499	     -0.14980789	     12.19575467	     -6.39037013	    -16.03075791	     34.22230918	      2.87416076	      0.59729197	      6.22785027	      6.81398825	     -7.50252212	      3.07683480	     -5.17075127	    -22.83757277	     28.95722985	     -1.35500039	      0.50539900	     17.04185049	      3.09447413	     -7.50252212	    -18.24363332	      4.17660305	     -1.70804755	      7.81732990	    -10.68320188	      5.67333018	     40.85271137	     90.00000001	      0.00000000	      0.00000000	    -14.96112905	     -9.98121926	     -2.99040174	     51.46868641	     90.00000001	      0.00000000	      0.00000000
      6.07000000	      6.25762802	     -5.08096946	     -5.33515387	      0.51527800	      0.94450240	     -0.14945549	     12.77142710	     -6.50703012	    -16.25773143	     33.52267015	      3.08942561	      0.58508097	      6.22947094	      7.02718015	     -7.50251200	      3.07508260	     -5.05264671	    -22.90956613	     28.96867765	     -1.30631078	      0.50559880	     17.11274933	      3.05924938	     -7.50251200	    -18.21898123	      3.98575651	     -1.64618897	      7.79733709	    -10.72058465	      5.67902747	     40.83145304	     90.00000001	      0.00000000	      0.00000000	    -14.94650744	     -9.95633250	     -2.97912137	     51.48646155	     90.00000001	      0.00000000	      0.00000000
      6.08000000	      6.15178699	     -5.17563872	     -5.31920778	      0.51658468	      0.94420908	     -0.14922601	     13.06240973	     -6.28118041	    -17.04825192	     32.25614617	      2.91232625	      0.56297595	      6.26419223	     10.02449178	     -7.50241640	      3.19576537	     -5.17012899	    -22.76086310	     29.17226060	     -1.33334740	      0.50915200	     17.26155206	      2.78107023	     -7.50241640	    -18.18494943	      4.07888254	     -1.61825780	      7.76171138	    -10.75835854	      5.52318122	     40.73353157	     90.00000001	      0.00000000	      0.00000000	    -14.81045202	     -9.88895320	     -2.96124183	     51.22263886	     90.00000001	      0.00000000	      0.00000000
      6.09000000	      6.00164189	     -5.03862146	     -5.42053804	      0.51780921	      0.94369279	     -0.14893238	     13.57449515	     -6.38631690	    -17.23898656	     31.39478534	      3.18864339	      0.54794237	      6.06097344	     10.79366554	     -7.50239206	      3.31365009	     -4.99398632	    -22.75276970	     29.22747054	     -1.40009740	      0.51011559	     17.36613221	      2.73036337	     -7.50239206	    -18.08851804	      3.90616466	     -1.59785850	      7.73585276	    -10.79707068	      5.52006012	     40.71324433	     90.00000001	      0.00000000	      0.00000000	    -14.78559986	     -9.86828833	     -2.94155815	     51.18867968	     90.00000001	      0.00000000	      0.00000000
      6.10000000	      5.88095749	     -5.00003948	     -5.49461320	      0.51908791	      0.94322903	     -0.14855773	     14.01764295	     -6.35515613	    -17.67923168	     30.56643535	      3.32288616	      0.53348494	      5.79940039	     11.95514776	     -7.50236437	      3.40701242	     -4.97563239	    -22.75927417	     29.34337886	     -1.41026850	      0.51213857	     17.49485137	      2.60333789	     -7.50236437	    -18.03104167	      3.84532369	     -1.54669928	      7.72442294	    -10.86644183	      5.48534478	     40.67563933	     90.00000001	      0.00000000	      0.00000000	    -14.70346128	     -9.85116304	     -2.92769437	     51.03376621	     90.00000001	      0.00000000	      0.00000000
      6.11000000	      5.82114044	     -4.89082295	     -5.61899890	      0.52047197	      0.94278539	     -0.14804633	     14.46987162	     -6.41473562	    -18.11119585	     30.02951251	      3.48796595	      0.52411387	      5.74186615	     12.25424516	     -7.50235745	      3.36328750	     -4.90558438	    -22.84983426	     29.36498061	     -1.33661955	      0.51251560	     17.58303740	      2.54768192	     -7.50235745	    -18.01880407	      3.67801896	     -1.46568824	      7.70908213	    -10.89176525	      5.48840044	     40.64824074	     90.00000001	      0.00000000	      0.00000000	    -14.64740274	     -9.80135754	     -2.91473068	     51.01764305	     90.00000001	      0.00000000	      0.00000000
      6.12000000	      5.85144696	     -4.90118782	     -5.43814865	      0.52218964	      0.94248653	     -0.14797979	     14.65186506	     -6.44017464	    -19.94178430	     29.36845740	      3.05349702	      0.51257628	      5.63967397	     16.11225884	     -7.50224974	      3.32792235	     -4.92224300	    -22.55281415	     29.57677790	     -1.32552899	      0.51621216	     17.75138277	      2.40186793	     -7.50224974	    -18.08273921	      3.72904553	     -1.60151562	      7.63353531	    -10.94101356	      5.35488204	     40.70825011	     90.00000001	      0.00000000	      0.00000000	    -14.51503663	     -9.77218595	     -2.87313250	     50.82675893	     90.00000001	      0.00000000	      0.00000000
      6.13000000	      5.76068131	     -4.77678197	     -5.51368365	      0.52362886	      0.94197350	     -0.14757597	     15.04851947	     -6.49848720	    -20.28489381	     28.85586384	      3.26787308	      0.50362983	      5.23852467	     16.53337238	     -7.50223155	      3.36177453	     -4.78520687	    -22.59910568	     29.62504381	     -1.37865916	      0.51705456	     17.87388398	      2.34418303	     -7.50223155	    -18.03209481	      3.58883241	     -1.59462586	      7.63434416	    -10.97907949	      5.36925852	     40.68292425	     90.00000001	      0.00000000	      0.00000000	    -14.45245590	     -9.74417960	     -2.84267610	     50.71932719	     90.00000001	      0.00000000	      0.00000000
      6.14000000	      5.73246122	     -4.68550293	     -5.61217471	      0.52521554	      0.94154255	     -0.14701208	     15.38180328	     -6.50404490	    -20.65169914	     28.54932264	      3.44480238	      0.49827968	      5.15219197	     16.61466500	     -7.50222837	      3.26628984	     -4.73171799	    -22.68205978	     29.62811195	     -1.32346799	      0.51710810	     17.94939948	      2.30492355	     -7.50222837	    -18.03632784	      3.46883101	     -1.53652654	      7.65157735	    -11.01598177	      5.37371833	     40.65705598	     90.00000001	      0.00000000	      0.00000000	    -14.40390636	     -9.71223139	     -2.83112164	     50.69344566	     90.00000001	      0.00000000	      0.00000000
      6.15000000	      5.68802099	     -4.55403084	     -5.64337477	      0.52688657	      0.94106238	     -0.14657808	     15.65895087	     -6.53900821	    -21.09767229	     28.18307846	      3.56468931	      0.49188751	      4.83574314	     16.85234799	     -7.50222331	      3.22265661	     -4.63126908	    -22.73031426	     29.69331075	     -1.29349157	      0.51824604	     18.07501164	      2.25520757	     -7.50222331	    -18.01245501	      3.33039603	     -1.51758562	      7.58696269	    -11.07367879	      5.37360821	     40.60630766	     90.00000001	      0.00000000	      0.00000000	    -14.30651809	     -9.69428488	     -2.81571358	     50.61442061	     90.00000001	      0.00000000	      0.00000000
